<svg preserveAspectRatio="none" width="100%" height="100%" overflow="visible" style="display: block;" viewBox="0 0 101 38" fill="none" xmlns="http://www.w3.org/2000/svg">
<g id="logo 1">
<path id="Vector" d="M47.3475 9.30016C47.744 9.31975 48.148 9.29457 48.5342 9.36732C50.0539 9.6546 50.7347 10.5248 50.9395 12.3809C50.8264 12.9452 50.7618 13.5198 50.5093 14.0496C49.9641 15.1912 48.6427 15.7173 47.6131 15.1987C47.2484 15.0149 46.9781 14.7183 46.691 14.4395C46.4563 14.2109 46.1869 14.0617 45.8493 14.1876C45.4752 14.3266 45.4883 14.6577 45.4996 14.9711C45.5323 15.9244 45.5753 16.8767 45.6127 17.8299C45.6539 18.8662 45.6529 18.896 46.7162 18.8932C47.4045 18.8913 47.6926 19.2243 47.7216 19.8511C47.7478 20.4266 47.7468 21.003 47.7571 21.5794C47.5841 22.084 47.1979 22.3116 46.6947 22.3545C44.5887 22.5336 42.4817 22.7024 40.3748 22.8778C39.6818 22.9356 39.3741 22.5196 39.2067 21.8425C38.5016 22.5187 37.7646 23.0186 36.8725 23.2602C35.8728 23.5307 34.9254 23.4906 34.0912 22.8172C33.7995 22.5812 33.6124 22.6176 33.3711 22.8759C32.4378 23.873 31.1968 24.3431 29.9082 24.3767C28.7654 24.4056 27.6235 24.0278 26.8005 23.0886C26.6715 22.9412 26.5415 22.7938 26.3675 22.5961C26.001 24.2787 24.8114 25.0939 23.3843 25.6461C21.4466 26.396 19.5547 25.6498 18.3586 24.3291C18.2548 24.2144 18.1501 24.1006 18.0453 23.9859C17.055 22.4264 16.5416 20.6784 16.0833 18.9165C15.9552 18.4231 15.8383 18.1741 15.2547 18.3718C14.6656 18.5714 14.2363 18.327 14.0044 17.7161C13.7117 16.9419 13.4985 16.1547 13.4489 15.3274C13.548 15.2136 13.6378 15.0886 13.7482 14.987C14.0502 14.709 14.689 14.8237 14.7619 14.4003C14.8292 14.0076 14.5805 13.5618 14.472 13.1383C14.4234 12.9499 14.3757 12.7606 14.327 12.5721C14.3794 12.0312 14.6899 11.7616 15.2014 11.5797C16.2058 11.2216 17.1822 10.7823 18.1725 10.3849C18.4783 10.2627 18.7944 10.1238 19.1058 10.3821C19.2209 10.758 19.3406 11.132 19.45 11.5088C19.7511 12.5491 20.4335 12.9213 21.4971 12.6253C22.7942 12.2644 22.9784 12.3614 23.3534 13.5972C23.4049 13.9703 23.4741 14.3425 23.504 14.7174C23.5732 15.5848 23.3404 15.9411 22.5267 16.2163C22.1695 16.3366 21.8048 16.4383 21.4372 16.5213C21.166 16.5829 21.0473 16.7097 21.1286 16.9858C21.5121 18.2804 21.7936 19.6077 22.3313 20.8538C22.4996 21.2446 22.7708 21.5132 23.2337 21.5281C24.0268 21.5533 25.4604 20.3175 25.5109 19.5349C25.5689 18.6367 25.8719 17.842 26.5031 17.2012C26.8267 16.8729 26.7631 16.7769 26.3956 16.497C25.4361 15.7667 24.6066 14.7696 25.1434 13.4414C25.5446 12.8352 26.188 12.5209 26.7538 12.1142C26.8052 12.0759 26.8566 12.0377 26.9081 12.0004L26.9146 12.0069C28.2501 11.3036 29.6706 10.8606 31.1604 10.633C31.9179 10.6321 32.6744 10.6302 33.4319 10.6293C33.5572 10.6741 33.6788 10.7384 33.8079 10.7599C35.7624 11.0798 36.894 12.2345 37.2279 14.1596C37.4476 15.4272 37.6206 16.7041 37.7964 17.9791C37.8498 18.3662 37.9723 18.6171 38.424 18.5388C38.9916 18.4418 39.3208 18.702 39.4368 19.2448C39.4919 19.5051 39.6341 19.5433 39.8735 19.5041C40.3102 19.4332 40.4608 19.2047 40.4281 18.7654C40.3158 17.26 40.2242 15.7527 40.141 14.2455C40.1223 13.9022 40.0231 13.7045 39.6397 13.7026C39.3068 13.7007 39.0187 13.5683 38.9159 13.2204C38.7298 12.5908 38.4501 11.9873 38.5091 11.2943C38.5409 10.9194 38.6269 10.6134 38.9261 10.3803C40.2588 9.97266 41.6485 9.86166 43.0101 9.60983C43.6629 9.48951 44.2399 9.72175 44.6355 10.2861C44.7907 10.508 44.96 10.6116 45.1676 10.3877C45.5865 9.93628 46.1617 9.74787 46.676 9.455C46.7228 9.44474 46.7695 9.43448 46.8163 9.42422C46.9239 9.39344 47.0305 9.36266 47.138 9.33188C47.2081 9.32162 47.2792 9.31229 47.3494 9.30203L47.3475 9.30016ZM25.8064 19.7373C25.7896 21.5692 27.1718 23.1147 29.0104 23.3236C30.6311 23.5074 32.0591 23.1007 33.2421 21.9516C33.4703 21.7296 33.6554 21.614 33.9856 21.8341C35.4108 22.7808 37.255 22.5737 38.5091 21.4078C39.1328 20.8286 39.2965 20.1505 39.1571 19.3549C39.0917 18.979 38.9523 18.7309 38.4866 18.8643C37.976 19.0117 37.6646 18.7822 37.5776 18.2683C37.3569 16.9699 37.0941 15.6762 36.9436 14.3704C36.7724 12.8855 36.0701 11.8222 34.6944 11.2468C33.6246 10.8 32.4977 10.73 31.3474 10.8858C29.3003 11.1619 27.3794 11.7299 25.8401 13.1952C25.0901 13.9097 25.1004 14.3518 25.8429 15.1838C26.4779 15.8954 26.5359 15.8936 27.4467 15.1698C27.7077 14.9618 27.9686 14.7501 28.2491 14.57C29.1479 13.9955 30.1064 13.6103 31.2043 13.6905C31.8571 13.7381 32.205 14.1121 32.3471 14.7183C32.4107 14.9898 32.3677 15.1157 32.031 15.2108C30.9313 15.5186 29.7969 15.6734 28.7205 16.096C26.808 16.8468 25.8223 18.0174 25.8064 19.7364V19.7373ZM45.1947 15.5084C45.2059 15.5084 45.2162 15.5084 45.2274 15.5074C45.2274 14.9963 45.1956 14.4833 45.2368 13.9759C45.2761 13.4871 45.5987 13.2223 46.0897 13.2092C46.4965 13.1989 46.7125 13.5263 46.9556 13.7754C47.4494 14.28 47.9974 14.5971 48.74 14.4581C49.8323 14.2538 50.5019 13.4834 50.5776 12.3157C50.6609 11.036 50.0146 10.0268 48.8606 9.69844C47.4036 9.28338 46.1841 9.76186 45.1386 10.7711C44.7935 11.104 44.5681 11.2794 44.4082 10.6302C44.296 10.1788 43.9509 9.97639 43.4646 9.95214C42.045 9.88125 40.7002 10.2431 39.346 10.5855C39.03 10.6657 38.8822 10.8158 38.8869 11.1283C38.8925 11.4613 38.8897 11.7952 38.9112 12.1282C38.9364 12.5143 39.1534 12.7652 39.5415 12.7746C40.1999 12.7904 40.3401 13.2008 40.3757 13.7399C40.4898 15.4459 40.6085 17.1509 40.7348 18.8559C40.761 19.2047 40.6955 19.5424 40.3233 19.5816C39.4601 19.6711 39.4265 20.2326 39.4358 20.8958C39.448 21.7968 39.6416 22.0048 40.5412 21.932C42.5397 21.7688 44.5382 21.6028 46.5357 21.4339C47.4382 21.3575 47.5588 21.1905 47.4981 20.1552C47.4447 19.2551 47.311 19.1329 46.4142 19.1637C45.6099 19.1907 45.4229 19.0359 45.364 18.2366C45.2976 17.3281 45.2508 16.4178 45.1956 15.5084H45.1947ZM21.2147 24.9149C23.0168 24.9176 24.3821 24.3645 25.3014 23.3992C25.5811 23.1063 25.8195 22.7854 25.928 22.389C26.0253 22.0337 25.6624 20.6057 25.4389 20.5852C24.9629 20.5423 24.8741 21.0832 24.5411 21.2772C24.4644 21.322 24.3999 21.3864 24.327 21.4358C23.316 22.1242 22.4772 21.9152 22.0217 20.7922C21.4288 19.3316 21.0501 17.8001 20.6302 16.2834C20.5273 15.9113 20.6769 15.7639 21.0286 15.6837C21.5925 15.555 22.1452 15.3768 22.7072 15.2351C23.1814 15.1157 23.3001 14.7939 23.2066 14.3732C23.072 13.7716 23.2244 13.0348 22.5043 12.6915C22.3715 12.6281 22.1555 12.7139 21.9843 12.7568C21.4223 12.8977 20.8518 13.0171 20.3075 13.2101C19.8035 13.3883 19.6239 13.1896 19.5192 12.7372C19.3929 12.1963 19.1891 11.673 19.0834 11.1292C18.9571 10.4782 18.6476 10.4082 18.0968 10.6694C17.4936 10.9548 16.8595 11.174 16.2451 11.437C14.313 12.2662 14.4654 11.9892 15.006 13.9778C15.1575 14.5355 15.0434 14.765 14.4926 14.9385C13.6032 15.2183 13.5751 15.3349 13.8202 16.2555C13.866 16.4271 13.9174 16.5978 13.9735 16.7666C14.2653 17.6424 14.3121 17.6909 15.2155 17.3971C15.7682 17.2171 15.9356 17.3906 16.0843 17.9157C16.5313 19.4948 16.9184 21.1038 17.7264 22.5532C18.5588 24.0456 19.8287 24.8701 21.2175 24.9149H21.2147ZM27.7825 16.1753C29.0833 15.5699 30.4384 15.1651 31.9272 14.986C31.0276 14.2772 28.7186 14.9497 27.7825 16.1753Z" fill="var(--fill-0, #F38B22)"/>
<path id="Vector_2" d="M15.3791 25.5817C14.4664 27.671 12.6792 28.6168 10.6162 29.1923C9.42947 29.5225 8.2156 29.6605 6.98396 29.6176C6.07122 29.5859 5.81966 29.3835 5.51292 28.4984C5.27351 27.81 4.93965 27.1506 4.92936 26.3969C4.92281 25.9194 5.0659 25.5398 5.51385 25.3113C5.87951 25.1247 5.89167 24.9195 5.50169 24.7656C4.16999 24.2386 3.79779 23.0056 3.29092 21.8565C3.20394 21.6587 3.44242 21.4619 3.21797 21.3155C3.10388 18.896 4.04281 17.4811 6.43969 16.3851C7.66852 15.8236 8.97497 15.6138 10.2926 15.4291C10.5339 15.4375 10.7743 15.4515 11.0155 15.4543C11.6674 15.4617 12.2837 15.5569 12.7288 16.1034C12.8551 16.4094 13.0196 16.706 13.101 17.0231C13.3685 18.0705 13.953 19.1665 12.6259 20.0684C14.1886 20.4826 15.0696 21.4367 15.4296 22.8927C15.6541 23.7984 15.5886 24.6901 15.3782 25.5827L15.3791 25.5817ZM8.48119 24.2489C8.48119 24.2489 8.48119 24.2405 8.48119 24.2358C9.12647 24.2358 9.77269 24.2172 10.417 24.2433C10.7471 24.2573 11.0146 24.4354 11.095 24.7871C11.1773 25.1471 11.0707 25.4549 10.7518 25.6545C10.5461 25.7823 10.3216 25.8877 10.0953 25.9754C8.93569 26.4259 7.86771 26.2123 6.87081 25.5146C6.40041 25.1853 5.9749 25.3849 5.5709 25.6424C5.19308 25.883 5.1828 26.2552 5.26416 26.6506C5.36703 27.1534 5.52881 27.6356 5.72614 28.1094C5.87764 28.4741 6.13014 28.6635 6.53133 28.7045C7.70031 28.8267 8.84498 28.6635 9.97469 28.4023C11.5823 28.0311 13.0898 27.4239 14.2429 26.1955C15.2426 25.1312 15.4465 23.8833 14.9798 22.4916C14.5496 21.2091 13.6649 20.5376 12.3622 20.3333C11.341 20.1738 10.3188 20.2373 9.29668 20.3053C8.94131 20.3296 8.585 20.3874 8.23337 20.2988C7.92756 20.2223 7.61147 20.1356 7.53759 19.7672C7.46932 19.4277 7.62082 19.1488 7.87707 18.9464C8.63082 18.3513 9.48371 18.1974 10.3918 18.4987C10.7462 18.6162 11.0791 18.8149 11.3999 19.0117C11.9049 19.3223 12.3482 19.1264 12.7746 18.868C13.2067 18.6069 13.1412 18.1881 13.0234 17.7954C12.8897 17.3495 12.7148 16.9168 12.5605 16.4765C12.3744 15.9449 11.9835 15.7145 11.4373 15.7042C9.13302 15.6623 6.96526 16.0848 5.08741 17.5305C3.65003 18.6376 3.1151 20.0973 3.61543 21.613C4.18589 23.3404 5.40256 24.2162 7.27948 24.2461C7.68068 24.2526 8.08093 24.2461 8.48213 24.2461L8.48119 24.2489ZM10.7528 25.2236C9.51083 25.1033 8.42789 25.2236 7.27574 25.2264C8.03418 26.175 9.62025 26.1908 10.7528 25.2236ZM11.3877 19.9248C10.5676 19.2075 9.46501 19.1105 8.51019 19.6263C8.37645 19.6981 8.16978 19.77 8.21093 19.9341C8.2633 20.1458 8.49709 20.0983 8.6673 20.089C9.54731 20.0404 10.4273 19.9836 11.3877 19.9248Z" fill="var(--fill-0, #F38B22)"/>
<path id="Vector_3" d="M95.2337 14.6475C95.7508 14.9058 95.7012 15.3237 95.5759 15.7835C95.4375 16.2881 94.9989 16.8533 95.2318 17.2749C95.4385 17.6499 96.1221 17.6443 96.614 17.7599C96.8609 17.8178 97.076 18.0108 97.3509 18.0211C97.523 18.2394 97.8456 18.3802 97.783 18.7253C97.5931 19.7634 97.3827 20.796 96.5626 21.5655C96.0585 21.6261 95.5769 21.5673 95.1355 21.294C94.8689 21.1905 94.6024 21.087 94.3359 20.9825C94.1198 20.8976 93.9375 20.9023 93.8711 21.169C93.5101 22.6381 92.7049 24.0017 92.8256 25.5836C92.3056 25.3868 92.3972 24.9307 92.4739 24.5688C92.7245 23.3861 92.9761 22.1978 93.3324 21.045C93.6999 19.8558 93.7673 19.867 94.983 20.2503C95.1532 20.3035 95.3244 20.3529 95.4964 20.3986C96.7141 20.7223 96.9114 20.6178 97.3172 19.4416C97.3603 19.3157 97.3921 19.1851 97.4313 19.0583C97.5707 18.6134 97.4341 18.3401 96.9656 18.2086C96.3867 18.0472 95.8266 17.8196 95.2458 17.6704C94.7324 17.5389 94.5238 17.344 94.7951 16.7992C95.0008 16.3851 95.1018 15.9197 95.2598 15.4804C95.3917 15.1129 95.2645 14.9422 94.883 14.8984C93.7991 14.7743 92.7189 14.6167 91.6341 14.5122C90.64 14.4171 90.5353 14.4749 90.3052 15.458C90.164 16.0605 89.9115 16.1631 89.3728 15.9449C89.0577 15.8171 88.7126 15.6203 88.3535 15.8199C88.0608 15.9822 87.5427 17.399 87.639 17.7814C87.7774 18.3289 88.2993 18.3634 88.707 18.4334C89.3186 18.5388 89.3457 18.8158 89.1549 19.3017C88.6593 20.5646 88.3441 21.8798 88.0748 23.2052C87.682 25.1359 88.1777 26.6478 89.5337 27.4491C91.0038 28.3165 92.5908 28.4778 94.2377 27.9956C94.7511 27.8455 95.0616 27.5134 95.2318 27.0088C95.5741 25.9959 95.5123 25.9362 94.4556 25.9679C93.8954 25.9847 93.2417 26.2225 92.8227 25.5808C93.035 25.5006 93.1538 25.7674 93.3558 25.7235C93.772 25.9269 94.1778 25.8382 94.6118 25.7524C95.0148 25.6732 95.4712 25.3019 95.863 25.8028C95.8705 25.8634 95.8789 25.9241 95.8864 25.9847C95.6676 26.5023 95.5002 27.0368 95.3908 27.588C95.2365 28.5982 94.5285 28.9395 93.6233 29.0673C92.9602 29.1606 92.299 29.2119 91.6323 29.1158C90.0761 28.8052 88.7566 28.1542 88.0327 26.6404C87.9345 26.2878 87.8354 25.9353 87.7372 25.5836C87.7447 25.3327 87.7578 25.0809 87.6343 24.8486C87.654 24.5138 87.6727 24.1789 87.6923 23.8441C87.7054 23.7135 87.7176 23.5829 87.7307 23.4523C87.8915 22.2967 88.2787 21.1998 88.634 20.0973C88.7743 19.6618 88.7734 19.4043 88.259 19.284C87.8382 19.1861 87.495 18.9436 87.3313 18.5127C87.3398 18.1592 87.3482 17.8047 87.3566 17.4512C87.4146 17.2852 87.4791 17.121 87.5296 16.9531C87.9775 15.4636 87.9775 15.4571 89.5159 15.7192C89.8255 15.7723 89.9499 15.652 90.0611 15.3871C90.2126 15.0289 90.1827 14.584 90.5465 14.3229C90.9047 14.3313 91.2619 14.3406 91.6201 14.349C92.834 14.3415 94.017 14.6922 95.2337 14.6503V14.6475Z" fill="var(--fill-0, #F38B22)"/>
<path id="Vector_4" d="M75.0514 23.3068C75.0467 23.2621 75.0318 23.221 75.0065 23.1837C75.1375 23.028 75.1852 22.847 75.1664 22.6474C75.1683 22.6017 75.1693 22.5569 75.1711 22.5112V22.5187C75.3656 22.4842 75.3881 22.3191 75.4367 22.1736C75.5742 21.7595 75.8201 21.5393 76.2915 21.6606C76.9209 21.8229 77.2295 21.5505 77.3763 20.9293C77.7438 19.3726 78.145 17.8234 78.5621 16.2788C78.6921 15.7984 78.6107 15.5615 78.0908 15.4169C77.0639 15.1315 77.063 15.0877 77.2987 14.0738C77.3436 13.8798 77.4053 13.6877 77.4754 13.5011C77.7663 12.7326 77.9009 12.6328 78.6566 12.9247C79.256 13.157 79.5787 13.045 79.7049 12.4117C79.7311 12.2821 79.7816 12.1562 79.834 12.033C80.4708 10.5435 81.4051 9.30389 83.036 8.85992C85.36 8.22847 87.4221 8.90283 89.1484 10.481C90.5306 11.7439 90.0593 13.3444 88.2478 13.8537C87.1826 14.1531 86.9909 14.0542 86.6412 13.0264C86.3008 12.0256 85.3282 11.839 84.6071 12.6188C84.2621 12.9919 84.1115 13.4414 83.9619 13.9059C83.8627 14.2147 83.9581 14.3509 84.2583 14.4329C84.8381 14.5915 85.402 14.8181 85.9884 14.9394C86.6683 15.0802 86.7945 15.4673 86.63 16.0559C86.5757 16.248 86.5327 16.4448 86.4644 16.6323C86.1829 17.4092 85.9632 17.5296 85.1589 17.343C84.768 17.2525 84.3668 17.1817 83.9983 17.0334C83.4475 16.8114 83.2025 16.9587 83.0697 17.5389C82.7471 18.9464 82.3674 20.3417 82.0176 21.7436C81.782 22.6903 81.8689 22.8246 82.8284 23.1175C83.0538 23.1865 83.4026 23.166 83.4335 23.4477C83.5008 24.0623 83.2857 24.6434 82.9547 25.1462C82.7115 25.5155 82.3038 25.3131 81.968 25.232C80.1276 24.7899 78.29 24.3328 76.4477 23.8954C75.9445 23.776 75.4592 23.6361 75.0505 23.305L75.0514 23.3068Z" fill="var(--fill-0, #FEE193)"/>
<path id="Vector_5" d="M51.2154 21.0478C51.1864 20.3594 51.1593 19.672 51.2416 18.9855C51.4062 17.6191 51.5409 17.4857 53.0998 17.2805C51.3258 15.9132 51.0864 14.1009 51.3968 12.1226C51.7803 10.6368 52.9436 10.0342 54.266 9.62662C54.5793 9.52961 54.9122 9.49604 55.2358 9.43261C56.0382 9.43354 56.8396 9.43541 57.642 9.43634C58.7764 9.6462 59.9192 9.83648 60.9507 10.3868C61.2359 10.5388 61.6371 10.5948 61.6932 11.0257C61.2341 10.8065 60.7908 10.5407 60.3129 10.3775C58.4023 9.72549 56.4263 9.42795 54.4465 9.86166C53.0231 10.1741 51.8869 11.0192 51.6419 12.4518C51.293 14.4889 52.1338 16.1137 54.1079 16.9447C54.9889 17.316 55.9035 17.6051 56.7947 17.9549C57.1576 18.0967 57.5036 18.3298 57.4409 18.7803C57.3736 19.2663 56.9864 19.4827 56.5394 19.5377C55.5322 19.6608 54.6354 19.4379 53.9546 18.6236C53.7694 18.4017 53.6029 18.1592 53.3907 17.967C53.04 17.6508 52.621 17.5361 52.1515 17.6769C51.7026 17.8112 51.6306 18.1843 51.5876 18.5695C51.5381 19.0107 51.5128 19.4538 51.4558 19.894C51.3781 20.4938 51.6465 20.8948 52.1824 21.0954C54.5419 21.9777 56.95 22.2473 59.3712 21.4125C60.9741 20.8594 61.7082 19.6459 61.7662 17.8542C61.8176 16.2648 60.8478 15.4477 59.5704 14.8293C58.6866 14.4012 57.7019 14.3061 56.791 13.9572C56.2252 13.7399 55.752 13.5002 55.8184 12.8137C55.8652 12.3287 56.4207 12.0172 57.1295 12.0181C57.2399 12.0181 57.3512 12.0368 57.4615 12.048C58.45 12.1543 59.0485 12.7727 59.5068 13.5851C59.8509 14.1951 60.4186 14.1177 60.9825 14.0403C61.5071 13.9684 61.6437 13.5851 61.7241 13.1448C61.8541 12.4369 61.7709 11.7327 61.6988 11.0285C62.0121 11.0798 61.9411 11.3951 62.072 11.5713C62.0636 12.0368 62.1 12.5078 62.0364 12.9648C61.9139 13.8435 62.0795 14.904 60.6599 15.1278C61.9616 16.054 62.1664 17.2581 62.0608 18.5826C61.9813 19.5788 61.6904 20.491 61.0826 21.294C60.2633 22.1064 59.2692 22.5644 58.133 22.708C56.1841 22.9552 54.2707 22.8162 52.4246 22.1008C51.8981 21.8966 51.4062 21.6391 51.2135 21.0469L51.2154 21.0478ZM59.3497 14.4227C58.9793 13.3687 57.9796 12.8678 56.7816 13.0637C56.6311 13.0879 56.4197 13.0907 56.3926 13.2502C56.3552 13.4676 56.5871 13.5226 56.7452 13.5748C57.5803 13.8537 58.4191 14.1205 59.3497 14.4217V14.4227ZM53.8882 17.8299C54.3801 18.9874 55.6706 19.6049 56.6404 19.2626C56.7377 19.2281 56.8733 19.2169 56.8845 19.0797C56.8957 18.9436 56.7751 18.8885 56.6769 18.8522C55.7885 18.522 54.8982 18.1993 53.8882 17.8308V17.8299Z" fill="var(--fill-0, #F38B22)"/>
<path id="Vector_6" d="M86.1315 18.2384C85.3749 18.5313 84.681 18.2095 83.9937 17.9838C83.542 17.8355 83.3671 17.9334 83.2623 18.3923C82.9818 19.6263 82.675 20.8547 82.3431 22.0766C82.2299 22.4954 82.3402 22.6707 82.7405 22.8097C83.7898 23.1744 83.8627 23.3451 83.6243 24.4354C83.5102 24.9578 83.3652 25.4689 83.1352 25.9539C82.8078 26.2468 82.4282 26.3111 82.012 26.2076C79.9593 25.6946 77.9037 25.1937 75.8566 24.6593C75.0823 24.4569 74.812 23.9486 75.0505 23.3059C75.4592 23.637 75.9445 23.7769 76.4476 23.8963C78.29 24.3338 80.1267 24.7908 81.968 25.2329C82.3038 25.3141 82.7115 25.5155 82.9547 25.1471C83.2857 24.6453 83.5008 24.0633 83.4335 23.4486C83.4026 23.166 83.0529 23.1865 82.8284 23.1184C81.8689 22.8256 81.781 22.6912 82.0176 21.7445C82.3674 20.3427 82.7471 18.9482 83.0697 17.5398C83.2025 16.9597 83.4475 16.8123 83.9983 17.0343C84.3668 17.1826 84.7689 17.2535 85.1589 17.344C85.9632 17.5305 86.182 17.4102 86.4644 16.6332C86.5327 16.4457 86.5757 16.2489 86.6299 16.0568C86.7955 15.4682 86.6683 15.0812 85.9884 14.9403C85.402 14.8191 84.8381 14.5924 84.2583 14.4339C83.9581 14.3518 83.8627 14.2156 83.9619 13.9069C84.1115 13.4424 84.2621 12.9928 84.6071 12.6197C85.3282 11.84 86.3008 12.0265 86.6412 13.0273C86.9909 14.0552 87.1826 14.154 88.2478 13.8546C90.0593 13.3454 90.5306 11.7448 89.1484 10.4819C87.422 8.90376 85.359 8.2294 83.036 8.86085C81.4051 9.3039 80.4708 10.5435 79.834 12.034C79.7816 12.1562 79.7311 12.283 79.7049 12.4127C79.5786 13.046 79.256 13.1579 78.6566 12.9257C77.9009 12.6337 77.7663 12.7335 77.4754 13.5021C77.4053 13.6886 77.3436 13.8808 77.2987 14.0748C77.063 15.0886 77.0649 15.1325 78.0908 15.4179C78.6107 15.5625 78.6921 15.8003 78.5621 16.2797C78.145 17.8243 77.7447 19.3736 77.3763 20.9303C77.2295 21.5524 76.9208 21.8238 76.2915 21.6615C75.8201 21.5403 75.5742 21.7595 75.4367 22.1745C75.3881 22.321 75.3656 22.4851 75.1721 22.5196C75.2356 21.5393 75.4479 21.3267 76.3635 21.4171C76.7347 21.4535 76.9526 21.3677 77.0434 20.9872C77.3043 19.8931 77.5802 18.8018 77.8495 17.7096C77.9243 17.5034 77.9963 17.2955 78.0758 17.0912C78.2516 16.6351 78.2367 16.3357 77.6372 16.1995C77.1715 16.0941 76.962 15.6623 76.919 15.181C76.8619 14.5467 77.0508 13.9591 77.2379 13.3659C77.4446 12.7102 77.857 12.4313 78.5462 12.5684C79.0905 12.6766 79.4159 12.4388 79.6104 11.923C79.8358 11.3251 80.1547 10.7683 80.5194 10.2413C81.4986 9.07818 82.7433 8.44766 84.2695 8.38143C85.7583 8.31801 87.0994 8.80862 88.3937 9.47738C88.6004 9.64341 88.8108 9.80663 89.0137 9.97732C89.8348 10.6685 90.4146 11.4706 90.2229 12.6225C89.9218 13.4172 89.6048 14.1774 88.7313 14.556C87.3313 15.1633 87.1022 15.1045 86.4308 13.7698C86.2671 13.4442 86.1109 13.1346 85.6639 13.1467C85.2244 13.1598 84.9036 13.3575 84.6642 13.7101C84.4454 14.0309 84.5183 14.2361 84.9017 14.3425C85.3506 14.4665 85.7939 14.6111 86.24 14.7435C86.7693 14.8993 87.0059 15.2537 86.9301 15.7938C86.8665 16.2527 86.7749 16.7069 86.6954 17.163C86.5832 17.5613 86.4074 17.925 86.1324 18.2384H86.1315Z" fill="var(--fill-0, #F38B22)"/>
<path id="Vector_7" d="M64.0499 12.3707C65.232 11.326 66.6151 10.7645 68.1872 10.6535C69.5535 10.5575 70.8637 10.8429 72.1626 11.2178C73.6851 11.8894 74.9355 12.8613 75.6845 14.3872C76.0932 15.3582 76.1699 16.3851 76.2064 17.4204L76.2157 17.427C76.1044 17.5967 76.1138 17.7851 76.1344 17.9745C75.8566 19.5153 75.2646 20.9107 74.2275 22.1018C71.5912 24.372 67.02 24.1705 64.3454 21.6671C64.1687 21.502 63.9872 21.3425 63.8077 21.1812C63.4205 20.4135 62.9529 19.6842 62.7434 18.8335C62.1627 16.4728 62.5171 14.3051 64.0499 12.3716V12.3707ZM75.8398 16.9485C75.8501 14.7678 75.0196 13.1999 73.3503 12.1627C71.4145 10.9595 69.2477 10.5948 67.0406 11.0863C62.7593 12.0405 61.754 16.9205 63.6253 19.8157C64.8701 21.7408 66.8124 22.4058 68.954 22.7118C72.8752 23.2714 75.8604 20.6934 75.8398 16.9494V16.9485Z" fill="var(--fill-0, #F38B22)"/>
<path id="Vector_8" d="M25.8064 19.7373C25.8223 18.0183 26.808 16.8468 28.7205 16.0969C29.7969 15.6744 30.9312 15.5196 32.031 15.2118C32.3677 15.1175 32.4116 14.9916 32.3471 14.7193C32.205 14.1139 31.858 13.739 31.2043 13.6914C30.1064 13.6112 29.1479 13.9955 28.2491 14.571C27.9686 14.7501 27.7086 14.9627 27.4467 15.1707C26.5359 15.8936 26.4779 15.8964 25.8429 15.1847C25.1004 14.3527 25.0901 13.9097 25.8401 13.1961C27.3794 11.7308 29.3003 11.1628 31.3474 10.8867C32.4977 10.7319 33.6246 10.8009 34.6944 11.2477C36.0701 11.8222 36.7724 12.8865 36.9436 14.3714C37.0941 15.6781 37.3569 16.9718 37.5776 18.2692C37.6646 18.7831 37.976 19.0126 38.4866 18.8652C38.9523 18.7309 39.0907 18.979 39.1571 19.3558C39.2965 20.1514 39.1319 20.8295 38.5091 21.4088C37.255 22.5747 35.4099 22.7817 33.9856 21.835C33.6554 21.6158 33.4703 21.7305 33.2421 21.9525C32.0591 23.1026 30.6311 23.5092 29.0104 23.3246C27.1718 23.1156 25.7896 21.5701 25.8064 19.7382V19.7373ZM33.0233 18.8801C32.8344 18.4427 33.1299 17.5799 32.6361 17.3356C32.1124 17.0763 31.5129 17.6816 30.9799 17.9885C30.9612 17.9997 30.9434 18.0136 30.9266 18.0276C30.4468 18.4222 30.2495 19.3428 30.5235 19.9183C30.7526 20.3986 31.1473 20.5124 31.6336 20.4023C32.3948 20.2298 33.0392 19.5797 33.0233 18.8801Z" fill="var(--fill-0, #FEE193)"/>
<path id="Vector_9" d="M45.1947 15.5084C45.2499 16.4178 45.2957 17.3281 45.363 18.2366C45.4219 19.0359 45.609 19.1907 46.4132 19.1637C47.3101 19.1329 47.4438 19.2551 47.4971 20.1552C47.5588 21.1905 47.4373 21.3575 46.5348 21.4339C44.5373 21.6037 42.5388 21.7697 40.5403 21.932C39.6406 22.0057 39.447 21.7968 39.4349 20.8958C39.4255 20.2326 39.4592 19.6711 40.3224 19.5816C40.6946 19.5433 40.7591 19.2047 40.7339 18.8559C40.6076 17.1509 40.4879 15.4459 40.3747 13.7399C40.3392 13.2008 40.1989 12.7904 39.5406 12.7746C39.1525 12.7652 38.9355 12.5143 38.9102 12.1282C38.8887 11.7961 38.8915 11.4622 38.8859 11.1283C38.8813 10.8149 39.029 10.6657 39.3451 10.5855C40.6983 10.2431 42.0431 9.88125 43.4637 9.95214C43.9509 9.97639 44.296 10.1779 44.4073 10.6302C44.5681 11.2794 44.7935 11.1031 45.1376 10.7711C46.1832 9.76093 47.4027 9.28338 48.8597 9.69844C50.0146 10.0277 50.6608 11.036 50.5767 12.3157C50.5009 13.4834 49.8313 14.2538 48.739 14.4581C47.9965 14.5971 47.4476 14.28 46.9547 13.7754C46.7106 13.5263 46.4955 13.198 46.0887 13.2092C45.5978 13.2223 45.2751 13.4871 45.2358 13.9759C45.1947 14.4833 45.2265 14.9963 45.2265 15.5074C45.2153 15.5074 45.205 15.5074 45.1938 15.5084H45.1947Z" fill="var(--fill-0, #FEE193)"/>
<path id="Vector_10" d="M21.2147 24.9149C19.8259 24.8701 18.5559 24.0456 17.7236 22.5532C16.9156 21.1038 16.5285 19.4948 16.0814 17.9157C15.9328 17.3906 15.7654 17.2171 15.2127 17.3971C14.3093 17.6909 14.2625 17.6424 13.9707 16.7666C13.9146 16.5978 13.8632 16.4271 13.8174 16.2555C13.5723 15.3349 13.6004 15.2183 14.4898 14.9385C15.0415 14.765 15.1556 14.5355 15.0032 13.9778C14.4626 11.9901 14.3102 12.2662 16.2423 11.437C16.8567 11.1731 17.4908 10.9548 18.094 10.6694C18.6448 10.4092 18.9553 10.4791 19.0806 11.1292C19.1863 11.673 19.3901 12.1963 19.5164 12.7372C19.6221 13.1896 19.8016 13.3883 20.3047 13.2101C20.849 13.0171 21.4195 12.8977 21.9815 12.7568C22.1527 12.7139 22.3678 12.6281 22.5015 12.6915C23.2216 13.0348 23.0691 13.7716 23.2038 14.3732C23.2983 14.7939 23.1786 15.1157 22.7044 15.2351C22.1433 15.3759 21.5906 15.555 21.0258 15.6837C20.6741 15.7639 20.5245 15.9113 20.6274 16.2834C21.0473 17.8001 21.426 19.3316 22.0189 20.7922C22.4753 21.9152 23.3132 22.1251 24.3242 21.4358C24.398 21.3854 24.4626 21.3211 24.5383 21.2772C24.8713 21.0832 24.9601 20.5423 25.4361 20.5852C25.6605 20.6057 26.0225 22.0337 25.9252 22.389C25.8167 22.7864 25.5782 23.1063 25.2986 23.3992C24.3793 24.3645 23.013 24.9176 21.2119 24.9149H21.2147Z" fill="var(--fill-0, #FEE193)"/>
<path id="Vector_11" d="M8.48119 24.2489C8.08 24.2489 7.67974 24.2545 7.27855 24.2489C5.40163 24.219 4.18495 23.3432 3.61449 21.6158C3.11417 20.1001 3.64909 18.6404 5.08647 17.5333C6.96339 16.0876 9.13115 15.6651 11.4364 15.707C11.9825 15.7173 12.3734 15.9477 12.5595 16.4793C12.7138 16.9186 12.8887 17.3523 13.0225 17.7982C13.1403 18.1909 13.2057 18.6097 12.7737 18.8708C12.3472 19.1282 11.9049 19.3241 11.399 19.0145C11.0782 18.8177 10.7453 18.619 10.3908 18.5015C9.48278 18.1993 8.63082 18.3532 7.87613 18.9492C7.61989 19.1516 7.46839 19.4304 7.53666 19.77C7.61054 20.1384 7.92663 20.2242 8.23244 20.3016C8.585 20.3902 8.94037 20.3324 9.29574 20.3081C10.3179 20.2401 11.3401 20.1757 12.3613 20.3361C13.664 20.5404 14.5496 21.2119 14.9789 22.4944C15.4455 23.8861 15.2416 25.134 14.2419 26.1983C13.0879 27.4267 11.5813 28.0329 9.97375 28.4051C8.84405 28.6663 7.69938 28.8285 6.5304 28.7073C6.13014 28.6653 5.87764 28.4769 5.7252 28.1122C5.52788 27.6384 5.36609 27.1562 5.26322 26.6534C5.18186 26.258 5.19215 25.8858 5.56996 25.6452C5.97396 25.3877 6.39947 25.1881 6.86987 25.5174C7.86584 26.2151 8.93476 26.4287 10.0944 25.9782C10.3207 25.8905 10.5451 25.786 10.7509 25.6573C11.0698 25.4586 11.1764 25.1508 11.0941 24.7899C11.0137 24.4382 10.7471 24.2591 10.4161 24.2461C9.77175 24.219 9.12554 24.2386 8.48026 24.2386C8.48026 24.2433 8.48026 24.247 8.48026 24.2517L8.48119 24.2489Z" fill="var(--fill-0, #FEE193)"/>
<path id="Vector_12" d="M92.8209 25.578C93.2398 26.2207 93.8935 25.9819 94.4537 25.9651C95.5105 25.9334 95.5722 25.9931 95.2299 27.006C95.0597 27.5106 94.7492 27.8427 94.2358 27.9928C92.5889 28.475 91.0019 28.3137 89.5318 27.4463C88.1749 26.646 87.6802 25.134 88.0729 23.2024C88.3423 21.8779 88.6574 20.5618 89.1531 19.2989C89.3439 18.813 89.3167 18.536 88.7051 18.4306C88.2974 18.3606 87.7755 18.3261 87.6371 17.7786C87.5408 17.3962 88.0589 15.9803 88.3516 15.8171C88.7107 15.6175 89.0558 15.8143 89.371 15.9421C89.9096 16.1603 90.1621 16.0577 90.3034 15.4552C90.5334 14.4721 90.6391 14.4143 91.6323 14.5094C92.718 14.6139 93.7981 14.7724 94.8811 14.8956C95.2626 14.9394 95.3898 15.1101 95.258 15.4776C95.0999 15.9169 94.9989 16.3823 94.7932 16.7964C94.522 17.3421 94.7305 17.5361 95.2439 17.6676C95.8247 17.8168 96.3858 18.0444 96.9637 18.2058C97.4332 18.3364 97.5688 18.6106 97.4295 19.0555C97.3892 19.1823 97.3584 19.3129 97.3154 19.4388C96.9104 20.6159 96.7122 20.7195 95.4946 20.3958C95.3225 20.3501 95.1514 20.3007 94.9812 20.2475C93.7645 19.8642 93.6971 19.853 93.3305 21.0422C92.9742 22.196 92.7227 23.3833 92.472 24.566C92.3954 24.9279 92.3037 25.3831 92.8237 25.5808L92.819 25.5762L92.8209 25.578Z" fill="var(--fill-0, #FEE193)"/>
<path id="Vector_13" d="M75.1664 22.6474C75.1524 22.6129 75.1356 22.5793 75.1272 22.5429C75.1253 22.5364 75.1552 22.5215 75.1711 22.5103C75.1692 22.556 75.1674 22.6008 75.1664 22.6465V22.6474Z" fill="var(--fill-0, #F38B22)"/>
<path id="Vector_14" d="M61.7007 11.0285C61.7727 11.7336 61.8559 12.4369 61.726 13.1448C61.6446 13.5851 61.509 13.9684 60.9844 14.0403C60.4204 14.1177 59.8528 14.1942 59.5086 13.5851C59.0504 12.7727 58.4519 12.1543 57.4634 12.048C57.353 12.0358 57.2417 12.0181 57.1314 12.0181C56.4225 12.0172 55.867 12.3287 55.8203 12.8137C55.7548 13.5002 56.2271 13.7399 56.7929 13.9572C57.7028 14.3061 58.6885 14.4022 59.5722 14.8293C60.8497 15.4477 61.8195 16.2648 61.768 17.8542C61.7101 19.6459 60.9759 20.8594 59.373 21.4125C56.9518 22.2473 54.5437 21.9777 52.1843 21.0954C51.6484 20.8948 51.38 20.4938 51.4576 19.894C51.5147 19.4547 51.5399 19.0107 51.5895 18.5695C51.6325 18.1853 51.7045 17.8112 52.1534 17.6769C52.6229 17.5361 53.0418 17.6508 53.3925 17.967C53.6048 18.1592 53.7713 18.4017 53.9564 18.6236C54.6373 19.4379 55.5341 19.6608 56.5413 19.5377C56.9892 19.4827 57.3764 19.2672 57.4428 18.7803C57.5045 18.3289 57.1595 18.0967 56.7966 17.9549C55.9063 17.606 54.9908 17.316 54.1098 16.9447C52.1356 16.1137 51.2949 14.4889 51.6437 12.4518C51.8887 11.0192 53.025 10.1741 54.4483 9.86166C56.4281 9.42702 58.4051 9.72549 60.3148 10.3775C60.7926 10.5407 61.2359 10.8065 61.6951 11.0257L61.7016 11.0294L61.7007 11.0285Z" fill="var(--fill-0, #FEE193)"/>
<path id="Vector_15" d="M75.8398 16.9485C75.8604 20.6924 72.8752 23.2705 68.954 22.7108C66.8124 22.4049 64.8701 21.7399 63.6253 19.8147C61.754 16.9205 62.7593 12.0396 67.0406 11.0854C69.2477 10.5938 71.4154 10.9585 73.3503 12.1618C75.0196 13.1989 75.8501 14.7668 75.8398 16.9475V16.9485ZM67.2604 17.246C67.252 17.7991 67.2127 18.3588 67.3988 18.8951C67.6232 19.5424 68.002 20.0405 68.7399 20.1263C69.5207 20.2177 70.1193 19.8716 70.4335 19.1926C71.0498 17.8607 71.3612 16.4616 71.0376 14.987C70.8412 14.0906 70.4064 13.6485 69.6797 13.5664C68.9484 13.4834 68.2227 13.9125 67.8421 14.6325C67.4091 15.4515 67.2351 16.3245 67.2604 17.2451V17.246Z" fill="var(--fill-0, #FEE193)"/>
<path id="Vector_16" d="M33.0233 18.8801C33.0392 19.5797 32.3948 20.2298 31.6336 20.4023C31.1473 20.5124 30.7526 20.3995 30.5235 19.9183C30.2495 19.3428 30.4468 18.4231 30.9266 18.0276C30.9434 18.0136 30.9612 17.9987 30.9799 17.9885C31.5129 17.6816 32.1124 17.0753 32.6361 17.3356C33.1299 17.5799 32.8344 18.4427 33.0233 18.8801ZM32.7053 18.8764C32.5781 18.7365 32.7848 18.23 32.2424 18.3606C31.7196 18.4865 31.2389 18.7244 30.9387 19.1991C30.6918 19.589 30.8293 20.0115 31.2099 20.1123C31.8234 20.2755 32.7044 19.5965 32.7053 18.8764Z" fill="var(--fill-0, #F38B22)"/>
<path id="Vector_17" d="M67.2604 17.246C67.2351 16.3264 67.4091 15.4533 67.8421 14.6335C68.2227 13.9134 68.9484 13.4834 69.6797 13.5674C70.4054 13.6494 70.8412 14.0916 71.0376 14.9879C71.3612 16.4616 71.0498 17.8616 70.4335 19.1935C70.1192 19.8726 69.5207 20.2186 68.7398 20.1272C68.002 20.0414 67.6232 19.5433 67.3988 18.896C67.2127 18.3597 67.252 17.8001 67.2604 17.2469V17.246ZM67.583 17.7077C67.583 17.8849 67.5671 18.064 67.5858 18.2394C67.6878 19.1861 68.1348 19.7634 68.8175 19.8436C69.5385 19.9285 70.0603 19.5321 70.4045 18.6022C70.6991 17.8066 70.8665 16.9802 70.8805 16.1295C70.8964 15.1716 70.6009 14.681 69.9219 14.515C69.1635 14.3294 68.4602 14.6782 68.0497 15.4496C67.6747 16.1557 67.5924 16.9261 67.5821 17.7068L67.583 17.7077Z" fill="var(--fill-0, #F38B22)"/>
</g>
</svg>
